<svg xmlns="http://www.w3.org/2000/svg" xmlns:se="http://svg-edit.googlecode.com" xmlns:xlink="http://www.w3.org/1999/xlink" xmlns:dc="http://purl.org/dc/elements/1.1/" xmlns:cc="http://creativecommons.org/ns#" xmlns:rdf="http://www.w3.org/1999/02/22-rdf-syntax-ns#" xmlns:inkscape="http://www.inkscape.org/namespaces/inkscape" width="777" height="480">
    <title>Ennemy 2</title>
    <!-- Created with Vector Paint - http://www.vectorpaint.yaks.com/ https://chrome.google.com/webstore/detail/hnbpdiengicdefcjecjbnjnoifekhgdo -->
    <g class="currentLayer">
        <title>Layer 1</title>
        <path fill="#ffffff" fill-opacity="1" stroke="#000000" stroke-opacity="1" stroke-width="1" stroke-dasharray="none" stroke-linejoin="round" stroke-linecap="butt" stroke-dashoffset="" fill-rule="nonzero" opacity="1" marker-start="" marker-mid="" marker-end="" id="svg_1" d="M144.20001,245C144.20001,245 268.20001,142.5 268.20001,142.5C268.20001,142.5 432.20001,110.5 432.20001,110.5C432.20001,110.5 403.70001,161.5 403.70001,161.5C403.70001,161.5 643.20001,152.5 643.20001,152.5C643.20001,152.5 541.70001,209.5 541.70001,209.5C541.70001,209.5 570.20001,241.5 570.20001,241.5C570.20001,241.5 387.20001,264.5 387.20001,264.5C387.20001,264.5 439.70001,312 439.70001,312C439.70001,312 348.20001,349 348.20001,349C348.20001,349 278.70001,264.5 278.70001,264.5L210.20001,271.5L224.20001,229.5L144.20001,245z" style="color: rgb(255, 132, 33);" class="" />
        <path fill="#ffde28" fill-opacity="1" stroke="#000000" stroke-opacity="1" stroke-width="1" stroke-dasharray="none" stroke-linejoin="round" stroke-linecap="butt" stroke-dashoffset="" fill-rule="nonzero" opacity="1" marker-start="" marker-mid="" marker-end="" id="svg_3" d="M348.20001220703125,270.5 " style="color: rgb(255, 132, 33);" />
        <path fill="#d50b0b" fill-opacity="1" stroke="#d50b0b" stroke-opacity="1" stroke-width="1" stroke-dasharray="none" stroke-linejoin="round" stroke-linecap="butt" stroke-dashoffset="" fill-rule="nonzero" opacity="1" marker-start="" marker-mid="" marker-end="" id="svg_7" d="M 230.70001220703125 200 C 230.70001220703125 200 218.20001220703125 188 218.20001220703125 188 C 218.20001220703125 188 257.70001220703125 153.5 257.70001220703125 153.5 C 257.70001220703125 153.5 272.20001220703125 163.5 272.20001220703125 163.5 C 272.20001220703125 163.5 230.70001220703125 200 230.70001220703125 200 z" style="color: rgb(255, 132, 33);" class="" />
        <path fill="#e98a8a" fill-opacity="1" stroke="#e98a8a" stroke-opacity="1" stroke-width="1" stroke-dasharray="none" stroke-linejoin="round" stroke-linecap="butt" stroke-dashoffset="" fill-rule="nonzero" opacity="1" marker-start="" marker-mid="" marker-end="" id="svg_5" d="M 218.20001220703125 188.5 C 218.20001220703125 188.5 230.70001220703125 200 230.70001220703125 200 C 230.70001220703125 200 272.70001220703125 164.5 272.70001220703125 164.5 C 272.70001220703125 164.5 218.20001220703125 188.5 218.20001220703125 188.5 z" style="color: rgb(255, 132, 33);" class="" />
        <path fill="#ffffff" fill-opacity="1" stroke="#000000" stroke-opacity="1" stroke-width="1" stroke-dasharray="none" stroke-linejoin="round" stroke-linecap="butt" stroke-dashoffset="" fill-rule="nonzero" opacity="1" marker-start="" marker-mid="" marker-end="" id="svg_9" d="M250.70001220703125,162.5 " style="color: rgb(255, 132, 33);" />
        <path fill="#dadada" fill-opacity="1" stroke="#ffffff" stroke-opacity="1" stroke-width="1" stroke-dasharray="none" stroke-linejoin="round" stroke-linecap="butt" stroke-dashoffset="" fill-rule="nonzero" opacity="1" marker-start="" marker-mid="" marker-end="" id="svg_11" d="M565.70001,240C565.70001,240 551.70001,226 551.70001,226C551.70001,226 216.20001,256 216.20001,256L212.70001,269.5L281.20001,262.5L349.20001,345.5L434.70001,311L383.20001,263.5L565.70001,240z" style="color: rgb(255, 132, 33);" class="" />
        <path fill="#dadada" fill-opacity="1" stroke="#ffffff" stroke-opacity="1" stroke-width="1" stroke-dasharray="none" stroke-linejoin="round" stroke-linecap="butt" stroke-dashoffset="" fill-rule="nonzero" opacity="1" marker-start="" marker-mid="" marker-end="" id="svg_13" d="M346.20001220703125,270.5 " style="color: rgb(255, 132, 33);" />
    </g>
</svg>
