<svg xmlns="http://www.w3.org/2000/svg" xmlns:se="http://svg-edit.googlecode.com" xmlns:xlink="http://www.w3.org/1999/xlink" xmlns:dc="http://purl.org/dc/elements/1.1/" xmlns:cc="http://creativecommons.org/ns#" xmlns:rdf="http://www.w3.org/1999/02/22-rdf-syntax-ns#" xmlns:inkscape="http://www.inkscape.org/namespaces/inkscape" width="777" height="480">
    <title>Ennemy 3</title>
    <!-- Created with Vector Paint - http://www.vectorpaint.yaks.com/ https://chrome.google.com/webstore/detail/hnbpdiengicdefcjecjbnjnoifekhgdo -->
    <g class="currentLayer">
        <title>Layer 1</title>
        <path fill="#ffffff" fill-opacity="1" stroke="#000000" stroke-opacity="1" stroke-width="1" stroke-dasharray="none" stroke-linejoin="round" stroke-linecap="butt" stroke-dashoffset="" fill-rule="nonzero" opacity="1" marker-start="" marker-mid="" marker-end="" id="svg_19" d="M455.20001,412L571.5,285L641.5,242L575.5,147L210.5,199C210.70001,199 459.20001,312.5 459.20001,312.5L455.20001,412z" style="color: rgb(255, 132, 33);" class="" />
        <path fill="#ecabab" fill-opacity="1" stroke="#ecabab" stroke-opacity="1" stroke-width="1" stroke-dasharray="none" stroke-linejoin="round" stroke-linecap="butt" stroke-dashoffset="" fill-rule="nonzero" opacity="1" marker-start="" marker-mid="" marker-end="" id="svg_23" d="M345.20001,180L399.20001,199.5C399.20001,199.5 440.20001,166 440.20001,166L345.20001,180z" style="color: rgb(255, 132, 33);" class="" />
        <path fill="#dadada" fill-opacity="1" stroke="#ffffff" stroke-opacity="1" stroke-width="1" stroke-dasharray="none" stroke-linejoin="round" stroke-linecap="butt" stroke-dashoffset="" fill-rule="nonzero" opacity="1" marker-start="" marker-mid="" marker-end="" id="svg_25" d="M216.70001,199.5C216.70001,199.5 250.20001,195.5 250.20001,195.5C250.20001,195.5 486.20001,301 486.20001,301C486.20001,301 479.70001,381 479.70001,381C479.70001,381 458.70001,405.5 458.70001,405.5L460.70001,311.5L216.70001,199.5z" style="color: rgb(255, 132, 33);" class="" />
        <path fill="#d50b0b" fill-opacity="1" stroke="#d50b0b" stroke-opacity="1" stroke-width="1" stroke-dasharray="none" stroke-linejoin="round" stroke-linecap="butt" stroke-dashoffset="" fill-rule="nonzero" opacity="1" marker-start="" marker-mid="" marker-end="" id="svg_27" d="M387.70001,173.5C387.70001,173.5 417.70001,185 417.70001,185L439.70001,166L387.70001,173.5z" style="color: rgb(255, 132, 33);" class="" />
        <path fill="#ecabab" fill-opacity="1" stroke="#000000" stroke-opacity="1" stroke-width="1" stroke-dasharray="none" stroke-linejoin="round" stroke-linecap="butt" stroke-dashoffset="" fill-rule="nonzero" opacity="1" marker-start="" marker-mid="" marker-end="" id="svg_29" d="M411.20001220703125,178 " style="color: rgb(255, 132, 33);" />
    </g>
</svg>
