<svg xmlns="http://www.w3.org/2000/svg" xmlns:se="http://svg-edit.googlecode.com" xmlns:xlink="http://www.w3.org/1999/xlink" xmlns:dc="http://purl.org/dc/elements/1.1/" xmlns:cc="http://creativecommons.org/ns#" xmlns:rdf="http://www.w3.org/1999/02/22-rdf-syntax-ns#" xmlns:inkscape="http://www.inkscape.org/namespaces/inkscape" width="777" height="480">
    <title>Planet</title>
    <!-- Created with Vector Paint - http://www.vectorpaint.yaks.com/ https://chrome.google.com/webstore/detail/hnbpdiengicdefcjecjbnjnoifekhgdo -->
    <g class="currentLayer">
        <title>Layer 1</title>
        <path fill="#ffffff" fill-opacity="1" stroke="#fcfce3" stroke-opacity="1" stroke-width="1" stroke-dasharray="none" stroke-linejoin="round" stroke-linecap="butt" stroke-dashoffset="" fill-rule="nonzero" opacity="1" marker-start="" marker-mid="" marker-end="" d="M285,221.5 C285,183.1022099447514 316.1022099447514,152 354.5,152 C392.8977900552486,152 424,183.1022099447514 424,221.5 C424,259.8977900552486 392.8977900552486,291 354.5,291 C316.1022099447514,291 285,259.8977900552486 285,221.5 Z" id="svg_1" class="" />
        <path fill="#f1f1f1" fill-opacity="1" stroke="#f1f1f1" stroke-opacity="1" stroke-width="1" stroke-dasharray="none" stroke-linejoin="round" stroke-linecap="butt" stroke-dashoffset="" fill-rule="nonzero" opacity="1" marker-start="" marker-mid="" marker-end="" id="svg_2" d="M285.2271,217.89529C285.2271,217.89529 309.32319,236.88512 315.5012,250.07884C322.20277,255.00031 344.60806,252.44102 344.23159,252.08808C355.49812,252.54573 379.78823,270.35294 379.78823,270.35294C385.44268,270.45765 409.65888,263.50354 409.65888,263.50354C416.25574,256.1737 418.02353,248 418.02353,248C417.70939,246.42932 390.37647,237.41176 390.37647,237.41176C388.80579,235.31752 357.43529,235.64706 357.43529,235.64706C352.82796,237.32245 322.14118,214.47059 322.14118,214.47059C319.94223,211.74808 286.25882,206.82353 286.25882,206.82353C286.67767,206.82353 283.86584,216.42932 285.2271,217.89529z" style="color: rgb(241, 244, 34);" class="" />
    </g>
</svg>
